# xmcd
#
# Track frame offsets:
#	150
#	16797
#	28752
#	44054
#	61969
#	78328
#	93217
#	108402
#	120193
#	131374
#	149707
#	161859
#	175132
#	186110
#	197670
#	210583
#	221799
#	235799
#	252375
#	266588
#	281171
#	295418
#	310205
#
# Disc length: 4366 seconds
#
# Revision: 0
# Processed by: cddbd v1.4PL0 Copyright (c) Steve Scherf et al.
# Submitted via: dBpowerAMP V4.0
#
DISCID=58110c17
DTITLE=Roberto Carlos - O melhor - Vol 02
DYEAR=1973
DGENRE=Cult
TTITLE0=Se eu partir
TTITLE1=I love you
TTITLE2=De tanto amor
TTITLE3=Amada amante
TTITLE4=Eu te darei o ceu
TTITLE5=Nossa canção
TTITLE6=Querem acabar comigo
TTITLE7=Esqueça
TTITLE8=Negro gato
TTITLE9=Eu estou apaixonado por você
TTITLE10=Namoradinha de um amigo meu
TTITLE11=O Gênio
TTITLE12=Não precisa chorar
TTITLE13=É papo firme
TTITLE14=Esperando você
TTITLE15=Ar de bom moço
TTITLE16=Canzone per te
TTITLE17=Eu daria minha vida
TTITLE18=Maria, carnaval e cinza 
TTITLE19=Você me pediu
TTITLE20=Com muito amor e carinho
TTITLE21=Sonho Lindo
TTITLE22=Un gato nel blu
EXTD=
EXTT0=
EXTT1=
EXTT2=
EXTT3=
EXTT4=
EXTT5=
EXTT6=
EXTT7=
EXTT8=
EXTT9=
EXTT10=
EXTT11=
EXTT12=
EXTT13=
EXTT14=
EXTT15=
EXTT16=
EXTT17=
EXTT18=
EXTT19=
EXTT20=
EXTT21=
EXTT22=
PLAYORDER=
